<mxfile host="app.diagrams.net" agent="Mozilla/5.0 (Macintosh; Intel Mac OS X 10_15_7) AppleWebKit/537.36 (KHTML, like Gecko) Chrome/126.0.0.0 Safari/537.36" version="24.7.6">
  <diagram name="第 1 页" id="_o-NHqm5kNj5wMjtTiSq">
    <mxGraphModel dx="2133" dy="701" grid="1" gridSize="10" guides="1" tooltips="1" connect="1" arrows="1" fold="1" page="1" pageScale="1" pageWidth="827" pageHeight="1169" math="0" shadow="0">
      <root>
        <mxCell id="0" />
        <mxCell id="1" parent="0" />
        <mxCell id="jPnBOiImL2e6noczrev8-26" value="" style="rounded=0;whiteSpace=wrap;html=1;fillColor=none;dashed=1;" parent="1" vertex="1">
          <mxGeometry x="-100" y="90" width="190" height="350" as="geometry" />
        </mxCell>
        <mxCell id="IoxWA918_TWJpxDD2AS3-1" value="" style="rounded=0;whiteSpace=wrap;html=1;fillColor=none;dashed=1;" parent="1" vertex="1">
          <mxGeometry x="480" y="80" width="190" height="350" as="geometry" />
        </mxCell>
        <mxCell id="IoxWA918_TWJpxDD2AS3-6" style="edgeStyle=orthogonalEdgeStyle;rounded=0;orthogonalLoop=1;jettySize=auto;html=1;exitX=0.25;exitY=1;exitDx=0;exitDy=0;entryX=0.5;entryY=0;entryDx=0;entryDy=0;" parent="1" source="jPnBOiImL2e6noczrev8-2" target="jPnBOiImL2e6noczrev8-11" edge="1">
          <mxGeometry relative="1" as="geometry">
            <Array as="points">
              <mxPoint x="203" y="320" />
              <mxPoint y="320" />
            </Array>
          </mxGeometry>
        </mxCell>
        <mxCell id="IoxWA918_TWJpxDD2AS3-8" style="edgeStyle=orthogonalEdgeStyle;rounded=0;orthogonalLoop=1;jettySize=auto;html=1;exitX=0.75;exitY=1;exitDx=0;exitDy=0;entryX=0.5;entryY=0;entryDx=0;entryDy=0;" parent="1" source="jPnBOiImL2e6noczrev8-2" target="IoxWA918_TWJpxDD2AS3-3" edge="1">
          <mxGeometry relative="1" as="geometry" />
        </mxCell>
        <mxCell id="jPnBOiImL2e6noczrev8-2" value="" style="rounded=0;whiteSpace=wrap;html=1;fillColor=none;dashed=1;" parent="1" vertex="1">
          <mxGeometry x="120" y="200" width="330" height="80" as="geometry" />
        </mxCell>
        <mxCell id="jPnBOiImL2e6noczrev8-1" value="查方案" style="rounded=0;whiteSpace=wrap;html=1;fillColor=none;" parent="1" vertex="1">
          <mxGeometry x="160" y="220" width="100" height="50" as="geometry" />
        </mxCell>
        <mxCell id="jPnBOiImL2e6noczrev8-3" value="计费" style="rounded=0;whiteSpace=wrap;html=1;fillColor=none;" parent="1" vertex="1">
          <mxGeometry x="314" y="220" width="100" height="50" as="geometry" />
        </mxCell>
        <mxCell id="IoxWA918_TWJpxDD2AS3-5" style="edgeStyle=orthogonalEdgeStyle;rounded=0;orthogonalLoop=1;jettySize=auto;html=1;exitX=0.875;exitY=0.5;exitDx=0;exitDy=0;exitPerimeter=0;entryX=0.25;entryY=0;entryDx=0;entryDy=0;" parent="1" source="jPnBOiImL2e6noczrev8-5" target="jPnBOiImL2e6noczrev8-2" edge="1">
          <mxGeometry relative="1" as="geometry" />
        </mxCell>
        <mxCell id="jPnBOiImL2e6noczrev8-5" value="参数" style="ellipse;shape=cloud;whiteSpace=wrap;html=1;" parent="1" vertex="1">
          <mxGeometry x="-60" y="100" width="120" height="80" as="geometry" />
        </mxCell>
        <mxCell id="jPnBOiImL2e6noczrev8-11" value="计费结果" style="rounded=0;whiteSpace=wrap;html=1;fillColor=none;" parent="1" vertex="1">
          <mxGeometry x="-50" y="350" width="100" height="50" as="geometry" />
        </mxCell>
        <mxCell id="jPnBOiImL2e6noczrev8-21" value="" style="shape=doubleArrow;whiteSpace=wrap;html=1;dashed=1;" parent="1" vertex="1">
          <mxGeometry x="70" y="345" width="440" height="60" as="geometry" />
        </mxCell>
        <mxCell id="jPnBOiImL2e6noczrev8-25" value="是否一致" style="text;html=1;align=center;verticalAlign=middle;whiteSpace=wrap;rounded=0;" parent="1" vertex="1">
          <mxGeometry x="270" y="330" width="60" height="30" as="geometry" />
        </mxCell>
        <mxCell id="jPnBOiImL2e6noczrev8-27" value="&lt;font style=&quot;font-size: 19px;&quot;&gt;订单&lt;/font&gt;" style="text;html=1;align=center;verticalAlign=middle;whiteSpace=wrap;rounded=0;" parent="1" vertex="1">
          <mxGeometry x="-35" y="40" width="60" height="30" as="geometry" />
        </mxCell>
        <mxCell id="IoxWA918_TWJpxDD2AS3-7" style="edgeStyle=orthogonalEdgeStyle;rounded=0;orthogonalLoop=1;jettySize=auto;html=1;exitX=0.16;exitY=0.55;exitDx=0;exitDy=0;exitPerimeter=0;entryX=0.75;entryY=0;entryDx=0;entryDy=0;" parent="1" source="IoxWA918_TWJpxDD2AS3-2" target="jPnBOiImL2e6noczrev8-2" edge="1">
          <mxGeometry relative="1" as="geometry" />
        </mxCell>
        <mxCell id="IoxWA918_TWJpxDD2AS3-2" value="参数" style="ellipse;shape=cloud;whiteSpace=wrap;html=1;" parent="1" vertex="1">
          <mxGeometry x="520" y="100" width="120" height="80" as="geometry" />
        </mxCell>
        <mxCell id="IoxWA918_TWJpxDD2AS3-3" value="计费结果" style="rounded=0;whiteSpace=wrap;html=1;fillColor=none;" parent="1" vertex="1">
          <mxGeometry x="530" y="350" width="100" height="50" as="geometry" />
        </mxCell>
        <mxCell id="IoxWA918_TWJpxDD2AS3-4" value="&lt;font style=&quot;font-size: 19px;&quot;&gt;信保&lt;/font&gt;" style="text;html=1;align=center;verticalAlign=middle;whiteSpace=wrap;rounded=0;" parent="1" vertex="1">
          <mxGeometry x="550" y="40" width="60" height="30" as="geometry" />
        </mxCell>
        <mxCell id="IoxWA918_TWJpxDD2AS3-9" value="&lt;font style=&quot;font-size: 19px;&quot;&gt;方案中心&lt;/font&gt;" style="text;html=1;align=center;verticalAlign=middle;whiteSpace=wrap;rounded=0;" parent="1" vertex="1">
          <mxGeometry x="250" y="160" width="80" height="30" as="geometry" />
        </mxCell>
      </root>
    </mxGraphModel>
  </diagram>
</mxfile>
